<svg width="375" height="490" viewBox="0 0 375 490" fill="none" xmlns="http://www.w3.org/2000/svg">
<path d="M0 12C0 5.3726 5.37258 0 12 0H363C369.627 0 375 5.37258 375 12V479.005C375 485.077 370.077 490 364.005 490V490C361.418 490 358.914 489.088 356.933 487.424L342.053 474.925C337.893 471.43 331.904 471.167 327.454 474.283L311.94 485.142C307.779 488.055 302.236 488.033 298.099 485.087L282.519 473.997C278.324 471.011 272.692 471.033 268.522 474.053L253.42 484.989C249.278 487.988 243.69 488.033 239.5 485.1L223.382 473.817C219.25 470.925 213.75 470.925 209.618 473.817L193.382 485.183C189.25 488.075 183.75 488.075 179.618 485.183L163.382 473.817C159.25 470.925 153.75 470.925 149.618 473.817L133.624 485.013C129.374 487.988 123.693 487.895 119.543 484.782L105.401 474.175C101.278 471.083 95.6404 470.969 91.3954 473.892L74.8618 485.276C70.7357 488.116 65.279 488.095 61.175 485.223L45.8745 474.512C41.272 471.29 35.0505 471.693 30.9017 475.481L18.0957 487.174C16.1042 488.992 13.5048 490 10.8081 490V490C4.83895 490 0 485.161 0 479.192V12Z" fill="white"/>
</svg>
