<svg width="375" height="400" viewBox="0 0 375 400" fill="none" xmlns="http://www.w3.org/2000/svg">
<path d="M0 12C0 5.37257 5.37258 0 12 0H363C369.627 0 375 5.37258 375 12V388.549C375 394.873 369.873 400 363.549 400V400C361.237 400 358.98 399.3 357.073 397.993L341.206 387.113C337.411 384.51 332.462 384.308 328.466 386.591L311.004 396.569C307.288 398.693 302.722 398.676 299.021 396.526L281.581 386.391C277.826 384.209 273.184 384.226 269.445 386.436L252.504 396.451C248.792 398.645 244.188 398.679 240.444 396.54L222.454 386.259C218.764 384.151 214.236 384.151 210.546 386.259L192.454 396.598C188.764 398.706 184.236 398.706 180.546 396.598L162.454 386.259C158.764 384.151 154.236 384.151 150.546 386.259L132.664 396.477C128.863 398.65 124.179 398.579 120.445 396.293L104.506 386.534C100.798 384.264 96.1513 384.177 92.3607 386.308L73.9285 396.668C70.2509 398.735 65.7581 398.719 62.0952 396.626L44.8236 386.756C40.6794 384.388 35.5257 384.701 31.6987 387.554L17.9955 397.767C16.0506 399.217 13.6897 400 11.264 400V400C5.04307 400 0 394.957 0 388.736V12Z" fill="white"/>
</svg>
